C:\Users\r0593348\3dpredictsim\Results\batch_windlass\Pog_s1_tmt_bCst_d05_k1500_WL20_ig24_pas_GRF.mot
nRows=12
nColumns=19

name C:\Users\r0593348\3dpredictsim\Results\batch_windlass\Pog_s1_tmt_bCst_d05_k1500_WL20_ig24_pas_GRF.mot
datacolumns 19
datarows 12
range 0.0000000000 0.1182436352
endheader
time 	ground_force_vx	ground_force_vy	ground_force_vz	ground_force_px	ground_force_py	ground_force_pz	1_ground_force_vx	1_ground_force_vy	1_ground_force_vz	1_ground_force_px	1_ground_force_py	1_ground_force_pz	ground_torque_x	ground_torque_y	ground_torque_z	1_ground_torque_x	1_ground_torque_y	1_ground_torque_z
        0.0000000000	      -95.0796577885	       77.9636074235	       31.4218512319	        0.1332133664	        0.0000000000	        0.0427033395	       82.5379945521	      405.9978476572	       -3.2316976986	       -0.3337977221	        0.0000000000	       -0.0326619708	        0.0000000000	        0.0000000000	        0.0000000000	        0.0000000000	        0.0000000000	        0.0000000000	
        0.0107494214	     -147.1178303917	      163.6733119633	       73.5145712134	        0.1433836439	        0.0000000000	        0.0415678157	       52.4052741100	      307.7736901953	      -12.7064761216	       -0.3270185306	        0.0000000000	       -0.0297770756	        0.0000000000	        0.0000000000	        0.0000000000	        0.0000000000	        0.0000000000	        0.0000000000	
        0.0214988428	      -71.3531112990	      376.8362667884	       28.0256391848	        0.1572342578	        0.0000000000	        0.0422250172	       22.0907837769	      204.0545319634	      -13.9810697837	       -0.3147830844	        0.0000000000	       -0.0234788145	        0.0000000000	        0.0000000000	        0.0000000000	        0.0000000000	        0.0000000000	        0.0000000000	
        0.0322482642	      -68.5841236117	      626.2209209578	       -5.4598438924	        0.1649660432	        0.0000000000	        0.0435194284	        3.4283353053	      151.1677964417	      -13.4089710719	       -0.3063318840	        0.0000000000	       -0.0182977046	        0.0000000000	        0.0000000000	        0.0000000000	        0.0000000000	        0.0000000000	        0.0000000000	
        0.0429976855	      -93.2363826556	      814.0641721877	      -14.6218180010	        0.1717938679	        0.0000000000	        0.0440757290	       -3.1942412924	      117.3005604696	      -11.8635284336	       -0.3062838514	        0.0000000000	       -0.0182815474	        0.0000000000	        0.0000000000	        0.0000000000	        0.0000000000	        0.0000000000	        0.0000000000	
        0.0537471069	     -120.4913467605	      923.4592084907	      -16.4715293809	        0.1797417873	        0.0000000000	        0.0439047803	      -11.9021991583	       74.8693966597	       -9.7264412700	       -0.3064815406	        0.0000000000	       -0.0182567847	        0.0000000000	        0.0000000000	        0.0000000000	        0.0000000000	        0.0000000000	        0.0000000000	
        0.0644965283	     -126.0556206084	      954.3673867793	      -15.1281409164	        0.1873148006	        0.0000000000	        0.0432356620	      -10.8400147282	       26.1787054837	       -4.3422078138	       -0.3066494345	        0.0000000000	       -0.0181089504	        0.0000000000	        0.0000000000	        0.0000000000	        0.0000000000	        0.0000000000	        0.0000000000	
        0.0752459497	     -115.2420068234	      915.0564295582	      -13.9076896271	        0.1916281081	        0.0000000000	        0.0426875965	        0.2025667357	       -0.2027438140	        0.0088171011	        0.0000000000	        0.0000000000	        0.0000000000	        0.0000000000	        0.0000000000	        0.0000000000	        0.0000000000	        0.0000000000	        0.0000000000	
        0.0859953711	      -96.9693390394	      850.9552063076	      -14.3979015692	        0.1946515090	        0.0000000000	        0.0422888271	        0.0005057192	       -0.0004168628	       -0.0000152814	        0.0000000000	        0.0000000000	        0.0000000000	        0.0000000000	        0.0000000000	        0.0000000000	        0.0000000000	        0.0000000000	        0.0000000000	
        0.0967447925	      -81.6854768101	      790.0124090518	      -14.9406534688	        0.1975724764	        0.0000000000	        0.0420256921	        0.0001636694	       -0.0001168767	       -0.0000084176	        0.0000000000	        0.0000000000	        0.0000000000	        0.0000000000	        0.0000000000	        0.0000000000	        0.0000000000	        0.0000000000	        0.0000000000	
        0.1074942139	      -68.7920662332	      740.1113000937	      -15.4858821378	        0.2004571240	        0.0000000000	        0.0418703886	        0.0007296959	       -0.0004673052	       -0.0000458267	        0.0000000000	        0.0000000000	        0.0000000000	        0.0000000000	        0.0000000000	        0.0000000000	        0.0000000000	        0.0000000000	        0.0000000000	
        0.1182436352	      -57.2661706683	      699.8499286711	      -16.8115502859	        0.2035107337	        0.0000000000	        0.0417874016	        0.0099082558	       -0.0058299427	       -0.0006996686	        0.0000000000	        0.0000000000	        0.0000000000	        0.0000000000	        0.0000000000	        0.0000000000	        0.0000000000	        0.0000000000	        0.0000000000	
